<svg width="44" height="44" viewBox="0 0 44 44" fill="none" xmlns="http://www.w3.org/2000/svg">
<path d="M40.3333 10.4683V28.0317C40.3333 33.0917 36.2267 37.1983 31.1667 37.1983H12.8333C11.99 37.1983 11.1833 37.0883 10.395 36.8683C9.25832 36.5567 8.89165 35.1083 9.73499 34.265L29.2233 14.7767C29.6267 14.3733 30.2317 14.2817 30.8 14.3917C31.3867 14.5017 32.0283 14.3367 32.4867 13.8967L37.1983 9.16666C38.9217 7.44333 40.3333 8.01166 40.3333 10.4683Z" fill="white"/>
<path d="M26.84 13.4933L7.64499 32.6883C6.76499 33.5683 5.29832 33.3483 4.71166 32.2483C4.03332 31.0017 3.66666 29.5533 3.66666 28.0317V10.4683C3.66666 8.01167 5.07832 7.44334 6.80166 9.16667L11.5317 13.915C12.2467 14.6117 13.42 14.6117 14.135 13.915L20.6983 7.33334C21.4133 6.61834 22.5867 6.61834 23.3017 7.33334L26.8583 10.89C27.555 11.605 27.555 12.7783 26.84 13.4933Z" fill="white"/>
</svg>
