<svg width="22" height="20" viewBox="0 0 22 20" fill="none" xmlns="http://www.w3.org/2000/svg">
<path d="M7.20078 3.74999H6.97742V1.66666C6.97742 1.32499 6.67365 1.04166 6.30734 1.04166C5.94103 1.04166 5.63726 1.32499 5.63726 1.66666V3.74999H5.4139C3.99333 3.74999 3.1803 4.50832 3.1803 5.83332V10.8333C3.1803 12.1583 3.99333 12.9167 5.4139 12.9167H5.63726V18.3333C5.63726 18.675 5.94103 18.9583 6.30734 18.9583C6.67365 18.9583 6.97742 18.675 6.97742 18.3333V12.9167H7.20078C8.62134 12.9167 9.43437 12.1583 9.43437 10.8333V5.83332C9.43437 4.50832 8.62134 3.74999 7.20078 3.74999Z" fill="#333333"/>
<path d="M17.0287 7.08332H16.8053V1.66666C16.8053 1.32499 16.5015 1.04166 16.1352 1.04166C15.7689 1.04166 15.4651 1.32499 15.4651 1.66666V7.08332H15.2418C13.8212 7.08332 13.0082 7.84166 13.0082 9.16666V14.1667C13.0082 15.4917 13.8212 16.25 15.2418 16.25H15.4651V18.3333C15.4651 18.675 15.7689 18.9583 16.1352 18.9583C16.5015 18.9583 16.8053 18.675 16.8053 18.3333V16.25H17.0287C18.4492 16.25 19.2623 15.4917 19.2623 14.1667V9.16666C19.2623 7.84166 18.4492 7.08332 17.0287 7.08332Z" fill="#333333"/>
</svg>
