<svg width="21" height="21" viewBox="0 0 21 21" fill="none" xmlns="http://www.w3.org/2000/svg">
<path d="M14.69 0.5H6.31C2.67 0.5 0.5 2.67 0.5 6.31V14.68C0.5 18.33 2.67 20.5 6.31 20.5H14.68C18.32 20.5 20.49 18.33 20.49 14.69V6.31C20.5 2.67 18.33 0.5 14.69 0.5ZM6.97 9.48C7.26 9.19 7.74 9.19 8.03 9.48L9.75 11.2V5.01C9.75 4.6 10.09 4.26 10.5 4.26C10.91 4.26 11.25 4.6 11.25 5.01V11.2L12.97 9.48C13.26 9.19 13.74 9.19 14.03 9.48C14.32 9.77 14.32 10.25 14.03 10.54L11.03 13.54C10.96 13.61 10.88 13.66 10.79 13.7C10.7 13.74 10.6 13.76 10.5 13.76C10.4 13.76 10.31 13.74 10.21 13.7C10.12 13.66 10.04 13.61 9.97 13.54L6.97 10.54C6.68 10.25 6.68 9.78 6.97 9.48ZM16.74 15.72C14.73 16.39 12.62 16.73 10.5 16.73C8.38 16.73 6.27 16.39 4.26 15.72C3.87 15.59 3.66 15.16 3.79 14.77C3.92 14.38 4.34 14.16 4.74 14.3C8.46 15.54 12.55 15.54 16.27 14.3C16.66 14.17 17.09 14.38 17.22 14.77C17.34 15.17 17.13 15.59 16.74 15.72Z" fill="#3DBAA1"/>
</svg>
