<svg width="24" height="25" viewBox="0 0 24 25" fill="none" xmlns="http://www.w3.org/2000/svg">
<path d="M22 8.31V13H17.92C17.8 12.99 17.54 12.84 17.48 12.73L16.44 10.76C16.03 9.98 15.32 9.54 14.56 9.58C13.8 9.62 13.15 10.13 12.82 10.96L11.44 14.42L11.24 13.9C10.75 12.63 9.35 11.67 7.97 11.67L2 11.7V8.31C2 4.67 4.17 2.5 7.81 2.5H16.19C19.83 2.5 22 4.67 22 8.31Z" fill="#10AE80"/>
<path d="M22 16.69V14.5H17.92C17.25 14.5 16.46 14.02 16.15 13.43L15.11 11.46C14.83 10.93 14.43 10.96 14.21 11.51L11.91 17.32C11.66 17.97 11.24 17.97 10.98 17.32L9.84 14.44C9.57 13.74 8.73 13.17 7.98 13.17L2 13.2V16.69C2 20.27 4.1 22.43 7.63 22.49C7.74 22.5 7.86 22.5 7.97 22.5H15.97C16.12 22.5 16.27 22.5 16.41 22.49C19.92 22.41 22 20.26 22 16.69Z" fill="#10AE80"/>
<path d="M1.99997 13.2V16.51C1.97997 16.19 1.96997 15.85 1.96997 15.5V13.2H1.99997Z" fill="#10AE80"/>
</svg>
