<svg width="16" height="22" viewBox="0 0 16 22" fill="none" xmlns="http://www.w3.org/2000/svg">
    <path fill-rule="evenodd" clip-rule="evenodd" d="M7 6.5C7 6.22386 6.77614 6 6.5 6H2C0.895431 6 0 6.89543 0 8V20C0 21.1046 0.895431 22 2 22H14C15.1046 22 16 21.1046 16 20V8C16 7.06626 15.3601 6.28197 14.4949 6.06171C14.2273 5.99359 14 6.22386 14 6.5V6.5C14 6.77614 14.2373 6.98964 14.4795 7.12224C14.7897 7.29203 15 7.62145 15 8V20C15 20.5523 14.5523 21 14 21H2C1.44772 21 1 20.5523 1 20V8C1 7.44772 1.44772 7 2 7H6.5C6.77614 7 7 6.77614 7 6.5V6.5Z" fill="#8F8888"/>
    <path d="M10.5 12C10.5 12.2761 10.7239 12.5 11 12.5C11.2761 12.5 11.5 12.2761 11.5 12L10.5 12ZM11.3536 0.646446C11.1583 0.451184 10.8417 0.451184 10.6464 0.646446L7.46447 3.82843C7.2692 4.02369 7.2692 4.34027 7.46447 4.53553C7.65973 4.7308 7.97631 4.7308 8.17157 4.53553L11 1.70711L13.8284 4.53553C14.0237 4.7308 14.3403 4.7308 14.5355 4.53553C14.7308 4.34027 14.7308 4.02369 14.5355 3.82843L11.3536 0.646446ZM11.5 12L11.5 1L10.5 1L10.5 12L11.5 12Z" fill="#8F8888"/>
</svg>