<svg width="20" height="21" viewBox="0 0 20 21" fill="none" xmlns="http://www.w3.org/2000/svg">
<path d="M14.19 0.5H5.81C2.17 0.5 0 2.67 0 6.31V14.68C0 18.33 2.17 20.5 5.81 20.5H14.18C17.82 20.5 19.99 18.33 19.99 14.69V6.31C20 2.67 17.83 0.5 14.19 0.5ZM6.47 7.48L9.47 4.48C9.54 4.41 9.62 4.36 9.71 4.32C9.89 4.24 10.1 4.24 10.28 4.32C10.37 4.36 10.45 4.41 10.52 4.48L13.52 7.48C13.81 7.77 13.81 8.25 13.52 8.54C13.37 8.69 13.18 8.76 12.99 8.76C12.8 8.76 12.61 8.69 12.46 8.54L10.74 6.82V13.01C10.74 13.42 10.4 13.76 9.99 13.76C9.58 13.76 9.24 13.42 9.24 13.01V6.82L7.52 8.54C7.23 8.83 6.75 8.83 6.46 8.54C6.17 8.25 6.18 7.78 6.47 7.48ZM16.24 15.72C14.23 16.39 12.12 16.73 10 16.73C7.88 16.73 5.77 16.39 3.76 15.72C3.37 15.59 3.16 15.16 3.29 14.77C3.42 14.38 3.85 14.16 4.24 14.3C7.96 15.54 12.05 15.54 15.77 14.3C16.16 14.17 16.59 14.38 16.72 14.77C16.84 15.17 16.63 15.59 16.24 15.72Z" fill="#3DBAA1"/>
</svg>
