<svg width="30" height="30" viewBox="0 0 30 30" fill="none" xmlns="http://www.w3.org/2000/svg">
<g clip-path="url(#clip0_103_893)">
<path d="M15 30C23.2843 30 30 23.2843 30 15C30 6.71573 23.2843 0 15 0C6.71573 0 0 6.71573 0 15C0 23.2843 6.71573 30 15 30Z" fill="#D80027"/>
<path d="M23.4783 11.1333H18.0451C18.3805 10.7821 18.5869 10.3066 18.5869 9.78264C18.5869 8.70211 17.711 7.82613 16.6304 7.82613C15.9497 7.82613 15.3505 8.17395 15 8.70135C14.6496 8.17395 14.0503 7.82613 13.3696 7.82613C12.2891 7.82613 11.4131 8.70211 11.4131 9.78264C11.4131 10.3066 11.6195 10.7822 11.9549 11.1333H6.52179C6.52179 12.5741 7.77669 13.742 9.21734 13.742H9.13038C9.13038 15.1828 10.2983 16.3508 11.7392 16.3508C11.7392 16.8174 11.8621 17.2549 12.0768 17.6336L9.91296 19.7975L11.5732 21.4576L13.9282 19.1027C14.0204 19.1365 14.1158 19.1636 14.2144 19.1821L12.7913 22.3951L15 24.7826L17.2087 22.3949L15.7856 19.182C15.8843 19.1635 15.9796 19.1364 16.0719 19.1026L18.4269 21.4575L20.0871 19.7974L17.9231 17.6334C18.1379 17.2547 18.2609 16.8172 18.2609 16.3506C19.7016 16.3506 20.8696 15.1827 20.8696 13.7418H20.7827C22.2233 13.7419 23.4783 12.5741 23.4783 11.1333V11.1333Z" fill="black"/>
</g>
<defs>
<clipPath id="clip0_103_893">
<rect width="30" height="30" fill="white"/>
</clipPath>
</defs>
</svg>
