<svg width="30" height="30" viewBox="0 0 30 30" fill="none" xmlns="http://www.w3.org/2000/svg">
<g clip-path="url(#clip0_103_959)">
<path d="M20.2174 0.932988C18.5924 0.330059 16.8348 0 15 0C13.1652 0 11.4076 0.330059 9.78263 0.932988L8.47827 15L9.78263 29.067C11.4076 29.67 13.1652 30 15 30C16.8348 30 18.5924 29.67 20.2174 29.067L21.5217 15L20.2174 0.932988Z" fill="#FFDA44"/>
<path d="M30 15C30 8.55058 25.9294 3.05238 20.2174 0.933044V29.0671C25.9294 26.9476 30 21.4495 30 15Z" fill="#D80027"/>
<path d="M0 15C0 21.4495 4.07062 26.9476 9.78264 29.0671V0.933044C4.07062 3.05238 0 8.55058 0 15Z" fill="black"/>
</g>
<defs>
<clipPath id="clip0_103_959">
<rect width="30" height="30" fill="white"/>
</clipPath>
</defs>
</svg>
